<?xml version="1.0" encoding="UTF-8" standalone="no"?>
<!-- Created with Inkscape (http://www.inkscape.org/) -->

<svg
   xmlns:dc="http://purl.org/dc/elements/1.1/"
   xmlns:cc="http://creativecommons.org/ns#"
   xmlns:rdf="http://www.w3.org/1999/02/22-rdf-syntax-ns#"
   xmlns:svg="http://www.w3.org/2000/svg"
   xmlns="http://www.w3.org/2000/svg"
   xmlns:xlink="http://www.w3.org/1999/xlink"
   xmlns:sodipodi="http://sodipodi.sourceforge.net/DTD/sodipodi-0.dtd"
   xmlns:inkscape="http://www.inkscape.org/namespaces/inkscape"
   width="1500mm"
   height="2000mm"
   viewBox="0 0 1500 2000"
   version="1.1"
   id="svg8"
   inkscape:version="0.92.1 r15371"
   sodipodi:docname="dashu.svg">
  <defs
     id="defs2">
    <inkscape:path-effect
       effect="bspline"
       id="path-effect4617"
       is_visible="true"
       weight="33.333333"
       steps="2"
       helper_size="0"
       apply_no_weight="true"
       apply_with_weight="true"
       only_selected="false" />
    <inkscape:path-effect
       effect="bspline"
       id="path-effect4567"
       is_visible="true"
       weight="33.333333"
       steps="2"
       helper_size="0"
       apply_no_weight="true"
       apply_with_weight="true"
       only_selected="false" />
    <inkscape:path-effect
       effect="bspline"
       id="path-effect4563"
       is_visible="true"
       weight="33.333333"
       steps="2"
       helper_size="0"
       apply_no_weight="true"
       apply_with_weight="true"
       only_selected="false" />
    <inkscape:path-effect
       effect="bspline"
       id="path-effect4559"
       is_visible="true"
       weight="33.333333"
       steps="2"
       helper_size="0"
       apply_no_weight="true"
       apply_with_weight="true"
       only_selected="false" />
    <inkscape:path-effect
       effect="bspline"
       id="path-effect4555"
       is_visible="true"
       weight="33.333333"
       steps="2"
       helper_size="0"
       apply_no_weight="true"
       apply_with_weight="true"
       only_selected="false" />
    <inkscape:path-effect
       effect="bspline"
       id="path-effect4551"
       is_visible="true"
       weight="33.333333"
       steps="2"
       helper_size="0"
       apply_no_weight="true"
       apply_with_weight="true"
       only_selected="false" />
    <inkscape:path-effect
       effect="bspline"
       id="path-effect4547"
       is_visible="true"
       weight="33.333333"
       steps="2"
       helper_size="0"
       apply_no_weight="true"
       apply_with_weight="true"
       only_selected="false" />
    <inkscape:path-effect
       effect="bspline"
       id="path-effect4543"
       is_visible="true"
       weight="33.333333"
       steps="2"
       helper_size="0"
       apply_no_weight="true"
       apply_with_weight="true"
       only_selected="false" />
    <inkscape:path-effect
       effect="bspline"
       id="path-effect4539"
       is_visible="true"
       weight="33.333333"
       steps="2"
       helper_size="0"
       apply_no_weight="true"
       apply_with_weight="true"
       only_selected="false" />
    <inkscape:path-effect
       effect="bspline"
       id="path-effect4535"
       is_visible="true"
       weight="33.333333"
       steps="2"
       helper_size="0"
       apply_no_weight="true"
       apply_with_weight="true"
       only_selected="false" />
    <inkscape:path-effect
       effect="bspline"
       id="path-effect4531"
       is_visible="true"
       weight="33.333333"
       steps="2"
       helper_size="0"
       apply_no_weight="true"
       apply_with_weight="true"
       only_selected="false" />
    <inkscape:path-effect
       effect="bspline"
       id="path-effect4527"
       is_visible="true"
       weight="33.333333"
       steps="2"
       helper_size="0"
       apply_no_weight="true"
       apply_with_weight="true"
       only_selected="false" />
    <inkscape:path-effect
       effect="bspline"
       id="path-effect4519"
       is_visible="true"
       weight="33.333333"
       steps="2"
       helper_size="0"
       apply_no_weight="true"
       apply_with_weight="true"
       only_selected="false" />
    <inkscape:path-effect
       effect="bspline"
       id="path-effect4515"
       is_visible="true"
       weight="33.333333"
       steps="2"
       helper_size="0"
       apply_no_weight="true"
       apply_with_weight="true"
       only_selected="false" />
    <inkscape:path-effect
       effect="bspline"
       id="path-effect4511"
       is_visible="true"
       weight="33.333333"
       steps="2"
       helper_size="0"
       apply_no_weight="true"
       apply_with_weight="true"
       only_selected="false" />
    <inkscape:path-effect
       effect="bspline"
       id="path-effect4507"
       is_visible="true"
       weight="33.333333"
       steps="2"
       helper_size="0"
       apply_no_weight="true"
       apply_with_weight="true"
       only_selected="false" />
    <inkscape:path-effect
       effect="bspline"
       id="path-effect4503"
       is_visible="true"
       weight="33.333333"
       steps="2"
       helper_size="0"
       apply_no_weight="true"
       apply_with_weight="true"
       only_selected="false" />
    <inkscape:path-effect
       effect="bspline"
       id="path-effect4499"
       is_visible="true"
       weight="33.333333"
       steps="2"
       helper_size="0"
       apply_no_weight="true"
       apply_with_weight="true"
       only_selected="false" />
  </defs>
  <sodipodi:namedview
     id="base"
     pagecolor="#ffffff"
     bordercolor="#666666"
     borderopacity="1.0"
     inkscape:pageopacity="0.0"
     inkscape:pageshadow="2"
     inkscape:zoom="0.2"
     inkscape:cx="2537.7511"
     inkscape:cy="3861.1741"
     inkscape:document-units="px"
     inkscape:current-layer="layer2"
     showgrid="false"
     inkscape:window-width="1920"
     inkscape:window-height="1028"
     inkscape:window-x="-8"
     inkscape:window-y="-8"
     inkscape:window-maximized="1" />
  <metadata
     id="metadata5">
    <rdf:RDF>
      <cc:Work
         rdf:about="">
        <dc:format>image/svg+xml</dc:format>
        <dc:type
           rdf:resource="http://purl.org/dc/dcmitype/StillImage" />
        <dc:title></dc:title>
      </cc:Work>
    </rdf:RDF>
  </metadata>
  <g
     inkscape:label="bg"
     inkscape:groupmode="layer"
     id="layer1"
     transform="translate(0,1703)"
     sodipodi:insensitive="true"
     style="display:none">
    <image
       sodipodi:absref="C:\Program Files\X-Plane 11\Aircraft\Extra Aircraft\Boeing B737-800X\liveries\Da_v1\objects\IMG_20170813_083354.jpg"
       xlink:href="IMG_20170813_083354.jpg"
       width="1219.2"
       height="1625.6"
       preserveAspectRatio="none"
       id="image4493"
       x="151.70708"
       y="-1667.1785" />
  </g>
  <g
     inkscape:groupmode="layer"
     id="layer2"
     inkscape:label="font">
    <path
       style="fill:#000000;fill-rule:evenodd;stroke:#000000;stroke-width:5;stroke-linecap:butt;stroke-linejoin:miter;stroke-miterlimit:4;stroke-dasharray:none;stroke-opacity:1;fill-opacity:1"
       d="m 329.75934,653.00615 c 5.55626,-4.85072 45.06737,-21.60767 87.92983,-29.54509 42.86245,-7.93743 89.07635,-7.05549 121.97281,-1.58741 32.89646,5.46808 52.4756,15.52224 62.26514,24.42973 9.78954,8.90749 9.78954,16.66857 8.3785,22.13669 -1.41105,5.46813 -4.23315,8.64299 -9.34873,11.11262 -5.11558,2.46963 -12.52325,4.23336 -22.75416,2.99861 -10.2309,-1.23475 -23.28314,-5.46791 -46.39027,-11.55337 -23.10712,-6.08547 -56.26763,-14.02283 -83.07888,-18.87356 -26.81124,-4.85074 -47.27189,-6.61459 -71.70213,-3.96876 -24.43023,2.64583 -52.82836,9.70127 -47.27211,4.85054 z"
       id="path4497"
       inkscape:connector-curvature="0"
       inkscape:path-effect="#path-effect4499"
       inkscape:original-d="m 295.80417,664.91251 c 39.51137,-16.75721 79.02249,-33.51415 118.53332,-50.27083 46.21414,0.88168 92.42803,1.76363 138.64167,2.64583 19.57944,10.05391 39.15858,20.10806 58.7375,30.1625 2.7e-4,7.76086 2.7e-4,15.52194 0,23.28334 -2.82207,3.17486 -5.64417,6.34973 -8.46667,9.525 -7.40873,1.76376 -14.8164,3.5275 -22.225,5.29166 -13.05306,-4.23378 -26.1053,-8.46693 -39.15833,-12.7 -33.16125,-7.93786 -66.32176,-15.87522 -99.48333,-23.8125 -20.46097,-1.76416 -40.92162,-3.52801 -61.38334,-5.29167 -28.39882,7.05541 -56.79695,14.11085 -85.19582,21.16667 z"
       sodipodi:nodetypes="ccccccccccc" />
    <path
       style="fill:#000000;fill-rule:evenodd;stroke:#000000;stroke-width:4.99999991;stroke-linecap:butt;stroke-linejoin:miter;stroke-opacity:1;stroke-miterlimit:4;stroke-dasharray:none;fill-opacity:1"
       d="m 1030.8169,656.18132 c -3.8806,-2.73402 -36.86535,-12.61181 -70.1147,-18.43267 -33.24935,-5.82086 -66.76307,-7.58474 -96.39648,-6.43822 -29.63341,1.14651 -55.38599,5.20343 -74.52425,8.8194 -19.13826,3.61598 -31.66173,6.79094 -39.9521,11.11243 -8.29037,4.32148 -12.34721,9.7894 -14.11121,14.81664 -1.764,5.02725 -1.23487,9.61308 1.05832,13.67025 2.29318,4.05717 6.34991,7.58477 14.1111,10.05421 7.76118,2.46945 19.22653,3.88057 38.36448,3.17501 19.13796,-0.70555 45.94962,-3.52783 72.31962,-9.08407 26.37,-5.55624 52.29946,-13.84661 72.67228,-19.93199 20.37282,-6.08539 35.18968,-9.96599 55.20948,-9.7014 20.01976,0.2646 45.24396,4.67442 41.36346,1.94041 z"
       id="path4501"
       inkscape:connector-curvature="0"
       inkscape:path-effect="#path-effect4503"
       inkscape:original-d="m 1059.9208,663.32501 c -32.9844,-9.87806 -65.96915,-19.75583 -98.95415,-29.63333 -33.51379,-1.76416 -67.0275,-3.52806 -100.54166,-5.29167 -25.75272,4.0567 -51.5053,8.11361 -77.25833,12.17084 -12.5235,3.17476 -25.04697,6.34973 -37.57084,9.525 -4.05677,5.46793 -8.11363,10.93583 -12.17083,16.40416 0.52946,4.58611 1.0586,9.17194 1.5875,13.75834 4.05741,3.52769 8.11416,7.05527 12.17083,10.58333 11.46548,1.41084 22.93083,2.82194 34.39584,4.23333 26.81083,-2.82244 53.62249,-5.64472 80.43333,-8.46666 25.92914,-8.29046 51.8586,-16.58083 77.7875,-24.87084 14.81674,-3.88077 29.6336,-7.76139 44.45,-11.64166 25.22331,4.40936 50.44751,8.81917 75.67081,13.22916 z" />
    <path
       style="fill:#000000;fill-rule:evenodd;stroke:#000000;stroke-width:4.99999991;stroke-linecap:butt;stroke-linejoin:miter;stroke-opacity:1;stroke-miterlimit:4;stroke-dasharray:none;fill-opacity:1"
       d="m 431.18275,968.47782 c 0.61744,-2.46943 12.25911,0.1764 23.72435,0.35275 11.46524,0.17636 22.7543,-2.11673 33.95486,-7.14379 11.20055,-5.02706 22.31334,-12.78838 33.16108,-23.28338 10.84774,-10.495 21.43135,-23.72451 31.57365,-33.51399 10.14229,-9.78947 19.84388,-16.1396 29.36872,-19.49089 9.52484,-3.35129 18.87375,-3.70407 27.51667,-3.52768 8.64291,0.17639 16.58065,0.88197 26.79169,4.53429 10.21104,3.65233 22.42075,10.10604 30.71095,17.07331 8.2902,6.96727 12.52356,14.37565 14.29422,22.5782 1.77067,8.20256 1.05163,17.55002 -1.6824,26.28139 -2.73402,8.73137 -7.49636,17.02137 -16.75698,25.31187 -9.26062,8.29051 -23.01843,16.58045 -38.18806,23.0188 -15.16964,6.4383 -31.7498,11.0243 -47.09579,13.4938 -15.34598,2.4695 -29.45684,2.8222 -44.00911,1.1465 -14.55228,-1.6757 -29.54502,-5.3798 -43.47987,-10.5833 -13.93486,-5.20351 -26.81108,-11.90619 -38.45281,-19.04998 -11.64173,-7.14378 -22.04861,-14.72846 -21.43117,-17.1979 z"
       id="path4505"
       inkscape:connector-curvature="0"
       inkscape:path-effect="#path-effect4507"
       inkscape:original-d="m 420.15833,963.36251 c 11.64193,2.64557 23.2836,5.2914 34.925,7.9375 11.28897,-2.29328 22.57803,-4.58639 33.86666,-6.87917 11.11248,-7.76118 22.22527,-15.52249 33.3375,-23.28333 10.58331,-13.22909 21.16693,-26.4586 31.75,-39.6875 9.70145,-6.35013 19.40304,-12.70026 29.10417,-19.05 9.34858,-0.35303 18.69749,-0.70583 28.04583,-1.05833 7.93753,0.70527 15.87527,1.41083 23.8125,2.11666 12.5235,6.52593 24.6947,13.05251 37.04167,19.57917 4.23357,7.40802 8.46693,14.8164 12.7,22.225 -0.7053,8.99567 -1.41084,18.34417 -2.11667,27.51667 -4.76239,8.29027 -9.52473,16.58027 -14.2875,24.87083 -13.7586,8.29032 -27.5164,16.58027 -41.275,24.87079 -16.58067,4.586 -33.16084,9.172 -49.74166,13.7584 -14.11111,0.3525 -28.22197,0.7052 -42.33334,1.0583 -14.99309,-3.7045 -29.98583,-7.4086 -44.97916,-11.1125 -12.87629,-6.70313 -25.75251,-13.40582 -38.62917,-20.10832 -10.40675,-7.58505 -20.81363,-15.16973 -31.22083,-22.75417 z" />
    <path
       style="fill:#000000;fill-rule:evenodd;stroke:#000000;stroke-width:4.99999991;stroke-linecap:butt;stroke-linejoin:miter;stroke-opacity:1;stroke-miterlimit:4;stroke-dasharray:none;fill-opacity:1"
       d="m 972.52036,934.61085 c -3.6159,-0.17635 -15.78673,8.99588 -29.38673,15.1734 -13.6,6.17751 -28.55694,9.34486 -43.19739,10.75601 -14.64045,1.41114 -28.92766,1.05837 -42.24523,-3.17502 -13.31757,-4.23339 -25.66457,-12.34714 -36.86534,-22.66596 -11.20076,-10.31882 -21.25487,-22.84236 -32.45547,-31.48537 -11.20059,-8.643 -23.54783,-13.40551 -37.12979,-14.90485 -13.58195,-1.49935 -28.39846,0.26453 -37.83531,2.91029 -9.43685,2.64576 -13.49371,6.17346 -17.55089,13.93496 -4.05717,7.7615 -8.11383,19.75509 -9.96597,31.22055 -1.85214,11.46546 -1.49937,22.40127 2.38127,32.19108 3.88063,9.7898 11.28879,18.43266 22.22499,26.19382 10.9362,7.76114 25.40002,14.64034 40.0445,19.73684 14.64448,5.0964 29.80563,8.4854 45.85421,10.4255 16.04858,1.9402 33.16397,2.4695 51.15554,-0.7937 17.99157,-3.2632 36.86548,-10.3188 52.38758,-17.4625 15.5221,-7.14372 27.69315,-14.3758 38.18813,-23.19516 10.49499,-8.81936 19.31467,-19.22658 26.19372,-29.19243 6.87906,-9.96586 11.81808,-19.49111 8.20218,-19.66746 z"
       id="path4509"
       inkscape:connector-curvature="0"
       inkscape:path-effect="#path-effect4511"
       inkscape:original-d="m 981.07499,925.26251 c -12.17057,9.17194 -24.3414,18.34417 -36.5125,27.51667 -14.99315,3.35121 -29.98584,6.34973 -44.97917,9.525 -14.28752,-0.35306 -28.57473,-0.70583 -42.8625,-1.05834 -12.34718,-8.11429 -24.69417,-16.22806 -37.04166,-24.34166 -10.05396,-12.52395 -20.10807,-25.0475 -30.1625,-37.57084 -12.34692,-4.76276 -24.69417,-9.52526 -37.04167,-14.2875 -14.81656,1.76364 -29.63307,3.52751 -44.45,5.29167 -4.05675,3.52758 -8.11363,7.05527 -12.17083,10.58333 -4.05696,11.99502 -8.11364,23.98861 -12.17084,35.98334 0.35306,10.93613 0.70583,21.87194 1.05834,32.80833 7.40878,8.64298 14.81693,17.28584 22.225,25.92917 14.46419,6.87892 28.92803,13.75802 43.39166,20.63752 14.81683,3.3511 29.98637,6.7025 44.97917,10.0541 17.10976,0.3525 34.2197,1.0581 51.32917,1.5875 18.8736,-7.0557 37.74749,-14.1114 56.62083,-21.1666 12.17088,-7.23212 24.34193,-14.46419 36.5125,-21.69586 8.81949,-10.40693 17.63916,-20.81416 26.45833,-31.22083 4.93903,-9.525 9.87803,-19.05026 14.81667,-28.575 z" />
    <path
       style="fill:#000000;fill-opacity:1;fill-rule:evenodd;stroke:#000000;stroke-width:18.89763769;stroke-linecap:butt;stroke-linejoin:bevel;stroke-miterlimit:4;stroke-dasharray:none;stroke-opacity:1;paint-order:stroke fill markers"
       d="m 2572.4583,3650.6233 c -16.9305,39.0208 -42.1459,67.213 -65.9547,87.0537 -23.8088,19.8407 -54.097,37.3538 -96.1602,58.7824 -36.3388,18.5122 -77.6011,30.5545 -144.8239,50.7437 -67.2228,20.1892 -199.5555,24.9485 -199.5558,24.9485 -3e-4,10e-5 -170.7254,-22.6204 -170.7254,-22.6204 -41.2688,38.0943 -82.5384,76.1888 -121.4278,128.5704 -38.8893,52.3812 -75.3977,119.0483 -100.7949,196.0332 -25.3972,76.9852 -39.6815,164.2841 -16.0097,275.0957 23.6717,110.8116 85.8505,246.332 179.2968,419.7949 93.4464,173.4625 219.2521,386.8554 345.8282,574.6484 126.576,187.7934 252.7896,348.7144 347.2343,444.7461 94.4448,96.0321 156.3502,126.1903 223.8106,127.7774 67.4604,1.587 140.4757,-25.3967 215.0781,-100.793 74.6024,-75.3959 150.7943,-199.2079 245.7285,-383.4746 94.9342,-184.2667 209.8283,-431.6054 293.9551,-638.7481 84.1268,-207.1423 138.0954,-375.3981 152.3809,-507.9375 14.2855,-132.5389 -11.113,-229.3648 -59.5254,-314.2851 -48.4124,-84.92 -119.841,-157.9352 -191.2696,-230.9512 -233.7732,78.7248 -301.4442,79.5635 -518.4501,44.8073 -62.5615,-19.8903 -128.9778,-45.2836 -139.6083,-50.0012 -43.0883,-19.1221 -79.5833,-42.1097 -109.7423,-68.3007 -35.7147,-33.5982 -53.8958,-69.4364 -69.2644,-115.8899 z"
       transform="scale(0.26458333)"
       id="path4513"
       inkscape:connector-curvature="0"
       sodipodi:nodetypes="csczzcccscccccssscccccc" />
    <path
       style="fill:none;fill-rule:evenodd;stroke:#000000;stroke-width:5;stroke-linecap:butt;stroke-linejoin:miter;stroke-miterlimit:4;stroke-dasharray:none;stroke-opacity:1"
       d="m 451.99472,1081.0383 c -24.76983,-14.8483 -49.53956,-29.6966 -65.23756,-63.2353 -15.698,-33.53878 -22.32406,-85.76771 -27.00126,-131.76028 -4.67721,-45.99256 -7.40559,-85.74906 -8.06006,-116.22892 -0.65446,-30.47986 0.76498,-51.68377 1.60839,-69.83832 0.8434,-18.15454 1.11084,-33.26063 1.37827,-48.36666 m -0.0322,-10.20814 c 0.2945,-12.63486 0.589,-25.26976 3.76801,-49.36432 3.17902,-24.09457 9.24227,-59.64732 20.68,-89.41285 11.43773,-29.76553 28.24993,-53.74358 48.09359,-71.52013 19.84366,-17.77655 42.71939,-29.35223 76.6188,-37.06914 33.89941,-7.71692 78.82407,-11.57548 127.05523,-13.50472 48.23116,-1.92924 99.77012,-1.92924 137.25676,-1.20678 37.48663,0.72246 60.9215,2.16738 81.88149,5.71685 20.95999,3.54948 39.44541,9.20354 62.58407,22.85007 23.13865,13.64653 50.93128,35.28593 69.65872,69.4946 18.72743,34.20867 28.38993,80.98697 34.97413,112.88142 6.5841,31.89446 10.0899,48.90466 14.3618,80.73779 4.272,31.83312 9.31,78.48729 10.7266,125.24134 1.4166,46.75406 -0.7883,93.60734 -5.1712,130.93695 -4.383,37.3296 -10.9439,65.13469 -25.0307,89.08154 -14.08686,23.9468 -35.69671,44.0315 -57.31128,64.1206"
       id="path4517"
       inkscape:connector-curvature="0"
       inkscape:original-d="m 451.99472,1081.0383 c 0,0 -49.53938,-29.6969 -74.30948,-44.545 -6.62579,-52.22912 -13.25185,-104.45805 -19.87817,-156.68671 -2.72809,-39.75645 -5.45648,-79.51295 -8.18512,-119.269 1.41967,-21.20363 2.83912,-42.40754 4.25825,-63.61049 0.2677,-15.10616 0.53497,-30.21225 0.8023,-45.31828 m -0.0322,-10.20814 c 0,0 0.58926,-25.26975 0.8835,-37.90457 6.06374,-35.55428 12.12699,-71.10704 18.1901,-106.66016 16.81218,-23.97794 33.62439,-47.95599 50.4362,-71.93359 22.8754,-11.57565 45.75114,-23.15131 68.6263,-34.72656 44.92369,-3.85874 89.84835,-7.71729 134.77214,-11.57552 51.53855,-2.7e-4 103.07751,-2.7e-4 154.61588,0 23.43492,1.44464 46.86979,2.88956 70.30429,4.33473 18.48556,5.65375 36.97098,11.3078 55.45589,16.96204 27.79253,21.63885 55.58516,43.27825 83.37734,64.91777 9.66281,46.77804 19.32531,93.55634 28.98751,140.33493 3.5061,17.01032 7.0118,34.02053 10.5174,51.03157 5.0384,46.65524 10.0763,93.30941 15.1141,139.96452 -2.2046,46.85304 -4.4095,93.70632 -6.6146,140.5599 -6.5608,27.80568 -13.1218,55.61074 -19.6832,83.41726 -21.6124,20.0871 -43.22227,40.1718 -64.83683,60.2609"
       sodipodi:nodetypes="cccccccccccccccccccccc"
       inkscape:path-effect="#path-effect4519" />
    <ellipse
       style="opacity:1;fill:#000000;fill-opacity:1;stroke:#000000;stroke-width:5;stroke-linecap:round;stroke-linejoin:round;stroke-miterlimit:4;stroke-dasharray:none;stroke-dashoffset:0;stroke-opacity:1;paint-order:normal"
       id="path4521"
       cx="541.38782"
       cy="776.90778"
       rx="30.401907"
       ry="40.925648" />
    <ellipse
       style="opacity:1;fill:#000000;fill-opacity:1;stroke:#000000;stroke-width:5;stroke-linecap:round;stroke-linejoin:round;stroke-miterlimit:4;stroke-dasharray:none;stroke-dashoffset:0;stroke-opacity:1;paint-order:normal"
       id="path4523"
       cx="786.35706"
       cy="775.15393"
       rx="33.325169"
       ry="40.340992" />
    <path
       style="fill:none;fill-rule:evenodd;stroke:#000000;stroke-width:4.99999991;stroke-linecap:butt;stroke-linejoin:miter;stroke-opacity:1;stroke-miterlimit:4;stroke-dasharray:none"
       d="m 355.46847,629.5755 c -19.09834,1.94881 -38.197,3.89766 -55.152,7.99022 -16.955,4.09256 -31.76594,10.32875 -45.79777,19.48837 -14.03182,9.15963 -27.28365,21.24217 -36.05358,36.63818 -8.76993,15.39601 -13.05729,34.10448 -13.25219,54.17776 -0.1949,20.07328 3.70271,41.51015 11.10835,61.97314 7.40564,20.46299 18.31904,39.95119 29.23261,53.98293 10.91357,14.03173 21.82702,22.60659 34.88433,27.67357 13.05732,5.06698 28.25832,6.62605 41.70526,5.45671 13.44694,-1.16935 25.14018,-5.0671 36.83289,-8.96467"
       id="path4525"
       inkscape:connector-curvature="0"
       inkscape:path-effect="#path-effect4527"
       inkscape:original-d="m 355.46847,629.5755 c -19.09836,1.94858 -38.19702,3.89742 -57.29592,5.84653 -14.81113,6.23612 -29.62208,12.4723 -44.43355,18.70887 -13.25213,12.08281 -26.50396,24.16535 -39.75634,36.24842 -4.28727,18.70901 -8.57463,37.41748 -12.86234,56.12659 3.89801,21.43734 7.79562,42.87422 11.69304,64.31174 10.91387,19.48834 21.82727,38.97654 32.74052,58.46522 10.91381,8.57467 21.82726,17.14952 32.7405,25.72469 15.20119,1.5588 30.40219,3.11788 45.60287,4.6772 11.69313,-3.89786 23.38636,-7.79563 35.07912,-11.69305" />
    <path
       style="fill:none;fill-rule:evenodd;stroke:#000000;stroke-width:4.99999991;stroke-linecap:butt;stroke-linejoin:miter;stroke-opacity:1;stroke-miterlimit:4;stroke-dasharray:none"
       d="m 1026.6491,627.23691 c 1.5594,-0.38984 3.1184,-0.77961 21.2392,0.58431 18.1207,1.36393 52.817,4.48269 79.9057,10.71896 27.0887,6.23627 46.5773,15.59077 60.0241,25.52978 13.4469,9.93902 20.8526,20.4628 24.1656,40.92558 3.3131,20.46278 2.5335,50.86455 -1.559,75.80976 -4.0925,24.94521 -11.4981,44.43343 -24.5554,61.58341 -13.0573,17.14997 -31.7658,31.96091 -49.6953,40.9257 -17.9295,8.96478 -35.079,12.08287 -50.8647,12.47265 -15.7857,0.38979 -30.207,-1.94878 -44.6286,-4.28742"
       id="path4529"
       inkscape:connector-curvature="0"
       inkscape:path-effect="#path-effect4531"
       inkscape:original-d="m 1026.6491,627.23691 c 1.5593,-0.39005 3.1184,-0.77981 4.6772,-1.1693 34.6827,3.11724 69.379,6.23601 104.0681,9.35442 19.4885,9.3541 38.977,18.70861 58.4651,28.06329 7.4059,10.52341 14.8115,21.04721 22.2168,31.57122 -0.7792,30.40179 -1.5588,60.80356 -2.3386,91.20572 -7.4054,19.4883 -14.8109,38.97653 -22.2168,58.46521 -18.7089,14.81117 -37.4174,29.62212 -56.1265,44.43357 -17.1499,3.11793 -34.2994,6.23602 -51.4494,9.35442 -14.4214,-2.33891 -28.8426,-4.67749 -43.2643,-7.01582" />
    <path
       style="fill:none;fill-rule:evenodd;stroke:#000000;stroke-width:5;stroke-linecap:butt;stroke-linejoin:miter;stroke-miterlimit:4;stroke-dasharray:none;stroke-opacity:1"
       d="m 353.4461,691.95674 c 6.94737,-14.48862 13.89472,-28.97721 20.84205,-43.46576 m 4.46016,-15.62435 c 11.41059,-21.68924 22.82122,-43.37854 40.03038,-65.34355 17.20916,-21.96501 40.21613,-44.20509 67.63293,-58.0093 27.4168,-13.80422 59.24386,-19.17264 85.88639,-19.71093 26.64254,-0.53828 47.36403,3.60602 62.5103,11.65846 15.14628,8.05244 24.34927,19.93962 29.65604,27.82277 5.30677,7.88316 6.96374,12.43982 10.41505,10.52232 3.45131,-1.91749 8.81948,-9.96975 15.72153,-17.83039 6.90204,-7.86063 15.33834,-15.53 32.59337,-22.62371 17.25502,-7.09371 43.33074,-13.61263 71.89784,-12.65398 28.56709,0.95865 59.62723,9.39474 87.81096,23.96592 28.18373,14.57119 53.49183,35.27782 71.70586,55.02565 18.21403,19.74782 29.33406,38.53682 36.88389,51.96762 7.54982,13.4308 11.52885,21.50238 15.50835,29.57481 m 4.4743,8.72611 c 1.2398,2.63186 2.4796,5.26372 6.4545,13.38566 3.975,8.12194 10.6857,21.73523 17.3961,35.34794"
       id="path4533"
       inkscape:connector-curvature="0"
       inkscape:path-effect="#path-effect4535"
       inkscape:original-d="m 353.4461,691.95674 c 6.94748,-14.48857 13.89483,-28.97716 20.84205,-43.46576 m 4.46016,-15.62435 c 0,0 22.82131,-43.37849 34.23177,-65.06771 23.00777,-22.24085 46.01474,-44.48093 69.02172,-66.72101 31.82659,-5.36855 63.65364,-10.73698 95.48008,-16.10508 21.47348,4.2177 42.18022,8.43574 63.26992,12.65399 9.20308,11.8867 18.40605,23.7739 27.60871,35.66123 1.53408,3.83429 3.0679,8.43573 4.60145,12.65399 5.36879,-8.0531 10.73698,-16.10535 16.10505,-24.1576 8.43595,-7.66908 16.87224,-15.33845 25.30798,-23.00727 26.07429,-6.51875 52.15001,-13.03768 78.22464,-19.55614 31.05968,8.43563 62.11983,16.87171 93.17935,25.30797 25.30808,20.70614 50.61619,41.41277 75.9239,62.11957 11.12042,18.78896 22.24045,37.57796 33.36052,56.36773 3.97958,8.07186 7.9586,16.14345 11.9378,24.21602 m 4.4743,8.72611 c 0,0 2.4799,5.26358 3.7194,7.89559 6.7104,13.61185 13.4211,27.22514 20.1312,40.83801"
       sodipodi:nodetypes="ccccccccccccccccccc" />
    <path
       style="fill:none;fill-rule:evenodd;stroke:#000000;stroke-width:4.99999991;stroke-linecap:butt;stroke-linejoin:miter;stroke-opacity:1;stroke-miterlimit:4;stroke-dasharray:none"
       d="m 483.15218,400.99638 c 2.68418,-50.6162 5.36836,-101.23216 11.6954,-135.55127 6.32704,-34.31911 16.29691,-52.34156 28.42707,-65.67738 12.13015,-13.33582 26.98229,-22.32527 45.96301,-28.65215 18.98073,-6.32689 42.37193,-10.16151 65.76247,-12.07875 23.39054,-1.91725 46.78153,-1.91725 71.70589,-0.95862 24.92436,0.95864 51.38299,2.87593 70.55561,5.17665 19.17262,2.30073 31.05982,4.98494 44.09706,11.31184 13.03725,6.3269 27.2253,16.29688 37.96194,30.10111 10.73665,13.80422 18.02231,31.44318 24.1576,54.4505 6.13529,23.00732 11.12015,51.38269 14.76088,76.47904 3.64073,25.09636 5.94565,46.99301 8.2464,68.85013"
       id="path4537"
       inkscape:connector-curvature="0"
       inkscape:path-effect="#path-effect4539"
       inkscape:original-d="m 483.15218,400.99638 c 2.68444,-50.61619 5.36861,-101.23215 8.05251,-151.84782 9.97003,-18.02251 19.9399,-36.04495 29.90943,-54.06702 14.18783,-8.81956 29.14277,-17.63916 43.71377,-26.45834 23.39046,-3.83472 46.78167,-7.66934 70.1721,-11.50362 23.39068,-2.7e-4 46.78167,-2.7e-4 70.1721,0 26.45831,1.91698 52.91694,3.83428 79.375,5.75181 11.88723,2.68389 23.77443,5.36809 35.66123,8.05254 14.18783,9.96937 28.37588,19.93935 42.56342,29.90942 7.28586,17.63855 14.5715,35.27751 21.85688,52.91666 4.9852,28.37557 9.97006,56.75094 14.9547,85.12681 1.91754,21.85678 4.60171,43.71351 6.90219,65.57066" />
    <path
       style="fill:none;fill-rule:evenodd;stroke:#000000;stroke-width:4.99999991;stroke-linecap:butt;stroke-linejoin:miter;stroke-opacity:1;stroke-miterlimit:4;stroke-dasharray:none"
       d="m 485.45289,333.12502 c 38.72919,-11.88718 77.45804,-23.77425 115.995,-29.33429 38.53695,-5.56004 76.88267,-4.79313 110.43481,-3.25931 33.55213,1.53381 62.31139,3.83455 92.3554,10.14277 30.04401,6.30821 61.60142,16.69907 93.04448,27.05228"
       id="path4541"
       inkscape:connector-curvature="0"
       inkscape:path-effect="#path-effect4543"
       inkscape:original-d="m 485.45289,333.12502 c 38.72913,-11.88736 77.45799,-23.77443 116.18658,-35.66123 38.34538,0.76663 76.6911,1.53355 115.03626,2.30071 28.75912,2.30045 57.51838,4.60118 86.27716,6.90218 31.44324,9.96945 62.88674,20.70624 94.32969,31.05979" />
    <path
       style="fill:none;fill-rule:evenodd;stroke:#000000;stroke-width:4.99999991;stroke-linecap:butt;stroke-linejoin:miter;stroke-opacity:1;stroke-miterlimit:4;stroke-dasharray:none"
       d="m 490.05434,290.5616 c -32.97676,3.83451 -65.9538,7.66906 -92.98741,11.69534 -27.03361,4.02627 -48.12339,8.24423 -61.35259,12.07872 -13.2292,3.8345 -18.59749,7.28554 -21.28182,13.61276 -2.68433,6.32722 -2.68433,14.76269 3.0677,22.04856 5.75203,7.28586 17.25533,13.03751 33.36038,15.3382 16.10506,2.3007 36.81177,1.15032 59.79874,-0.76481 22.98697,-1.91513 48.3355,-4.60361 73.64319,-7.28776"
       id="path4545"
       inkscape:connector-curvature="0"
       inkscape:path-effect="#path-effect4547"
       inkscape:original-d="m 490.05434,290.5616 c -32.97679,3.83429 -65.95383,7.66882 -98.93115,11.50364 -21.08991,4.21775 -42.17969,8.43571 -63.26994,12.65399 -5.36816,3.45085 -10.73645,6.90189 -16.10506,10.35325 2.7e-4,9.20316 2.7e-4,17.63863 0,26.45833 11.50422,5.75172 23.00751,11.50337 34.51088,17.25544 20.70658,-1.15062 41.41329,-2.30101 62.11956,-3.4511 25.30787,-2.30094 50.61619,-5.3686 75.9239,-8.05254" />
    <path
       style="fill:none;fill-rule:evenodd;stroke:#000000;stroke-width:5;stroke-linecap:butt;stroke-linejoin:miter;stroke-miterlimit:4;stroke-dasharray:none;stroke-opacity:1"
       d="m 886.23911,269.22238 c 35.66151,-3.06766 71.32274,-6.13529 90.49543,-7.6691 19.17269,-1.5338 21.85689,-1.5338 26.17426,-3.76538 4.3174,-2.23159 10.6373,-6.97154 19.0731,-10.42249 8.4357,-3.45095 19.1729,-5.75178 30.2929,-6.90211 11.12,-1.15033 23.3909,-1.15033 37.7702,1.91727 14.3793,3.0676 31.2516,9.20299 47.1648,16.87204 15.9133,7.66905 30.8681,16.87201 45.2476,26.65006 14.3795,9.77804 28.1839,20.13134 36.4281,29.52586 8.2442,9.39451 10.9284,17.83052 10.444,24.60571 -0.4844,6.77519 -4.5003,12.39739 -12.9366,17.57424 -8.4363,5.17686 -21.4729,10.16149 -35.2775,13.03746 -13.8046,2.87597 -28.3754,3.64285 -44.4807,1.15038 -16.1053,-2.49247 -33.7439,-8.24419 -53.4144,-16.64079 -19.6705,-8.39661 -41.6822,-19.59552 -55.87,-27.45636 -14.1879,-7.86084 -20.7066,-12.46228 -25.4996,-14.18788 -4.79301,-1.72561 -7.86066,-0.57524 -25.11774,1.48747 -17.25708,2.06272 -48.69707,5.03708 -80.14057,8.01178"
       id="path4549"
       inkscape:connector-curvature="0"
       inkscape:path-effect="#path-effect4551"
       inkscape:original-d="m 886.23911,269.22238 c 35.66149,-3.0679 71.32272,-6.13553 106.98369,-9.2029 2.68443,-2.6e-4 5.36863,-2.6e-4 8.0525,0 6.1349,-4.21783 12.2708,-9.20316 18.4058,-13.80434 10.7365,-2.30087 21.4737,-4.60171 32.2102,-6.90217 11.5035,-2.7e-4 23.7744,-2.7e-4 35.6612,0 16.8719,6.13485 33.7442,12.27027 50.6159,18.4058 14.9549,9.20255 29.9097,18.40553 44.8641,27.60869 13.8046,10.35293 27.609,20.70626 41.4131,31.05978 2.6844,8.43571 5.3686,16.87171 8.0525,25.30798 -3.8343,4.98472 -7.6688,10.73645 -11.5036,16.10505 -13.0379,4.98494 -26.0746,9.96956 -39.1123,14.95473 -14.5714,0.76666 -29.1422,1.53355 -43.7138,2.30071 -17.6389,-5.75217 -35.2775,-11.50387 -52.9166,-17.25544 -21.8568,-10.73705 -43.7135,-22.24058 -65.5707,-33.36049 -6.5185,-4.60174 -13.0372,-9.20316 -19.5561,-13.80434 -3.06737,1.15009 -6.13502,2.30044 -9.20291,3.45109 -31.44623,2.97472 -62.88622,5.94908 -94.3297,8.92401"
       sodipodi:nodetypes="cccccccccccccccccc" />
    <path
       style="fill:none;fill-rule:evenodd;stroke:#000000;stroke-width:5;stroke-linecap:butt;stroke-linejoin:miter;stroke-miterlimit:4;stroke-dasharray:none;stroke-opacity:1"
       d="m 993.71085,260.92584 c 1.87077,17.63866 3.74156,35.27753 5.61238,52.91666"
       id="path4553"
       inkscape:connector-curvature="0"
       inkscape:path-effect="#path-effect4555"
       inkscape:original-d="m 993.71085,260.92584 c 1.87108,17.63863 3.74188,35.2775 5.61238,52.91666" />
    <path
       style="fill:none;fill-rule:evenodd;stroke:#000000;stroke-width:5;stroke-linecap:butt;stroke-linejoin:miter;stroke-miterlimit:4;stroke-dasharray:none;stroke-opacity:1"
       d="m 1130.0113,369.96624 c 5.3452,-17.90647 10.6904,-35.81259 16.4364,-49.30893 5.746,-13.49633 11.8929,-22.58322 16.7035,-28.59639 4.8106,-6.01317 8.285,-8.95306 11.7591,-11.89265"
       id="path4557"
       inkscape:connector-curvature="0"
       inkscape:path-effect="#path-effect4559"
       inkscape:original-d="m 1130.0113,369.96624 c 5.3454,-17.90642 10.6905,-35.81255 16.0354,-53.71843 6.147,-9.0868 12.294,-18.17368 18.4406,-27.2601 3.4745,-2.93997 6.9489,-5.87989 10.423,-8.81944" />
    <path
       style="fill:none;fill-rule:evenodd;stroke:#000000;stroke-width:4.99999991;stroke-linecap:butt;stroke-linejoin:miter;stroke-opacity:1;stroke-miterlimit:4;stroke-dasharray:none"
       d="m 1042.4583,855.67709 c 28.6635,-3.52782 57.3267,-7.05559 77.8318,-22.71011 20.505,-15.65451 32.8524,-43.43602 35.7187,-68.13029 2.8662,-24.69426 -3.7485,-46.30213 -17.6389,-61.07455 -13.8904,-14.77241 -35.0572,-22.70996 -54.2395,-26.67875 -19.1823,-3.96879 -36.3804,-3.96879 -53.5783,-3.96879"
       id="path4561"
       inkscape:connector-curvature="0"
       inkscape:path-effect="#path-effect4563"
       inkscape:original-d="m 1042.4583,855.67709 c 28.6635,-3.52806 57.3267,-7.05582 85.9896,-10.58333 12.3474,-27.78122 24.6947,-55.56276 37.0417,-83.34375 -6.6143,-21.60767 -13.2289,-43.21556 -19.8438,-64.82291 -21.1662,-7.93772 -42.333,-15.87527 -63.5,-23.8125 -17.1977,-2.7e-4 -51.5937,0 -51.5937,0" />
    <path
       style="fill:none;fill-rule:evenodd;stroke:#000000;stroke-width:4.99999991;stroke-linecap:butt;stroke-linejoin:miter;stroke-opacity:1;stroke-miterlimit:4;stroke-dasharray:none"
       d="m 354.54166,843.77084 c -24.25323,-1.76387 -48.50669,-3.52776 -65.48432,-15.43419 -16.97764,-11.90644 -26.67893,-33.95483 -29.32471,-56.00347 -2.64579,-22.04864 1.76396,-44.09737 12.78826,-59.75174 11.0243,-15.65438 28.66344,-24.91492 43.36786,-31.12197 14.70441,-6.20704 26.47444,-9.3608 38.24458,-12.5146"
       id="path4565"
       inkscape:connector-curvature="0"
       inkscape:path-effect="#path-effect4567"
       inkscape:original-d="m 354.54166,843.77084 c -24.25321,-1.76416 -48.50667,-3.52806 -72.76041,-5.29166 -9.70122,-22.04911 -19.40252,-44.0975 -29.10417,-66.14583 4.40996,-22.04877 8.81971,-44.0975 13.22917,-66.14584 17.63889,-9.26055 35.27803,-18.52109 52.91666,-27.78125 11.7702,-3.15402 35.31042,-9.46139 35.31042,-9.46139" />
  </g>
</svg>
