<?xml version="1.0" encoding="UTF-8" standalone="no"?>
<!-- Created with Inkscape (http://www.inkscape.org/) -->

<svg
   xmlns:dc="http://purl.org/dc/elements/1.1/"
   xmlns:cc="http://creativecommons.org/ns#"
   xmlns:rdf="http://www.w3.org/1999/02/22-rdf-syntax-ns#"
   xmlns:svg="http://www.w3.org/2000/svg"
   xmlns="http://www.w3.org/2000/svg"
   xmlns:xlink="http://www.w3.org/1999/xlink"
   xmlns:sodipodi="http://sodipodi.sourceforge.net/DTD/sodipodi-0.dtd"
   xmlns:inkscape="http://www.inkscape.org/namespaces/inkscape"
   width="5000"
   height="5000"
   viewBox="0 0 5000.0001 5000.0001"
   id="svg2"
   version="1.1"
   inkscape:version="0.92.2 (5c3e80d, 2017-08-06)"
   sodipodi:docname="dashu_logo.svg"
   inkscape:export-filename="C:\Users\wshuai\Pictures\737\white\objects\dashu_logo.png"
   inkscape:export-xdpi="15.075647"
   inkscape:export-ydpi="15.075647">
  <defs
     id="defs4">
    <inkscape:path-effect
       effect="bspline"
       id="path-effect1460"
       is_visible="true"
       weight="33.333333"
       steps="2"
       helper_size="0"
       apply_no_weight="true"
       apply_with_weight="true"
       only_selected="false" />
    <inkscape:path-effect
       effect="bspline"
       id="path-effect5186"
       is_visible="true"
       weight="33.333333"
       steps="2"
       helper_size="0"
       apply_no_weight="true"
       apply_with_weight="true"
       only_selected="false" />
    <inkscape:path-effect
       effect="bspline"
       id="path-effect5131"
       is_visible="true"
       weight="33.333333"
       steps="2"
       helper_size="0"
       apply_no_weight="true"
       apply_with_weight="true"
       only_selected="false" />
    <inkscape:path-effect
       effect="bspline"
       id="path-effect5123"
       is_visible="true"
       weight="33.333333"
       steps="2"
       helper_size="0"
       apply_no_weight="true"
       apply_with_weight="true"
       only_selected="false" />
    <inkscape:path-effect
       effect="bspline"
       id="path-effect5119"
       is_visible="true"
       weight="33.333333"
       steps="2"
       helper_size="0"
       apply_no_weight="true"
       apply_with_weight="true"
       only_selected="false" />
    <inkscape:path-effect
       effect="bspline"
       id="path-effect5115"
       is_visible="true"
       weight="33.333333"
       steps="2"
       helper_size="0"
       apply_no_weight="true"
       apply_with_weight="true"
       only_selected="false" />
    <inkscape:path-effect
       effect="bspline"
       id="path-effect5111"
       is_visible="true"
       weight="33.333333"
       steps="2"
       helper_size="0"
       apply_no_weight="true"
       apply_with_weight="true"
       only_selected="false" />
    <inkscape:path-effect
       effect="bspline"
       id="path-effect5107"
       is_visible="true"
       weight="33.333333"
       steps="2"
       helper_size="0"
       apply_no_weight="true"
       apply_with_weight="true"
       only_selected="false" />
    <inkscape:path-effect
       effect="skeletal"
       id="path-effect4173"
       is_visible="true"
       pattern="m 0,-3942.6378 c 0,-2.76 2.24,-5 5,-5 2.76,0 5,2.24 5,5 0,2.76 -2.24,5 -5,5 -2.76,0 -5,-2.24 -5,-5 z"
       copytype="single_stretched"
       prop_scale="1"
       scale_y_rel="false"
       spacing="0"
       normal_offset="0"
       tang_offset="0"
       prop_units="false"
       vertical_pattern="false"
       fuse_tolerance="0" />
    <inkscape:path-effect
       effect="skeletal"
       id="path-effect4169"
       is_visible="true"
       pattern="m 0,-3942.6378 c 0,-2.76 2.24,-5 5,-5 2.76,0 5,2.24 5,5 0,2.76 -2.24,5 -5,5 -2.76,0 -5,-2.24 -5,-5 z"
       copytype="single_stretched"
       prop_scale="1"
       scale_y_rel="false"
       spacing="0"
       normal_offset="0"
       tang_offset="0"
       prop_units="false"
       vertical_pattern="false"
       fuse_tolerance="0" />
    <inkscape:path-effect
       effect="spiro"
       id="path-effect4167"
       is_visible="true" />
    <inkscape:path-effect
       effect="skeletal"
       id="path-effect4163"
       is_visible="true"
       pattern="m 0,-3942.6378 c 0,-2.76 2.24,-5 5,-5 2.76,0 5,2.24 5,5 0,2.76 -2.24,5 -5,5 -2.76,0 -5,-2.24 -5,-5 z"
       copytype="single_stretched"
       prop_scale="1"
       scale_y_rel="false"
       spacing="0"
       normal_offset="0"
       tang_offset="0"
       prop_units="false"
       vertical_pattern="false"
       fuse_tolerance="0" />
    <inkscape:path-effect
       effect="spiro"
       id="path-effect4161"
       is_visible="true" />
    <inkscape:path-effect
       effect="skeletal"
       id="path-effect4153"
       is_visible="true"
       pattern="m 0,-3942.6378 c 0,-2.76 2.24,-5 5,-5 2.76,0 5,2.24 5,5 0,2.76 -2.24,5 -5,5 -2.76,0 -5,-2.24 -5,-5 z"
       copytype="single_stretched"
       prop_scale="1"
       scale_y_rel="false"
       spacing="0"
       normal_offset="0"
       tang_offset="0"
       prop_units="false"
       vertical_pattern="false"
       fuse_tolerance="0" />
  </defs>
  <sodipodi:namedview
     id="base"
     pagecolor="#ffffff"
     bordercolor="#666666"
     borderopacity="1.0"
     inkscape:pageopacity="0.0"
     inkscape:pageshadow="2"
     inkscape:zoom="0.2"
     inkscape:cx="2631.9886"
     inkscape:cy="2636.6553"
     inkscape:document-units="px"
     inkscape:current-layer="layer4"
     showgrid="false"
     units="px"
     inkscape:window-width="1920"
     inkscape:window-height="1013"
     inkscape:window-x="-9"
     inkscape:window-y="-9"
     inkscape:window-maximized="1" />
  <metadata
     id="metadata7">
    <rdf:RDF>
      <cc:Work
         rdf:about="">
        <dc:format>image/svg+xml</dc:format>
        <dc:type
           rdf:resource="http://purl.org/dc/dcmitype/StillImage" />
        <dc:title />
      </cc:Work>
    </rdf:RDF>
  </metadata>
  <g
     inkscape:groupmode="layer"
     id="layer2"
     inkscape:label="bg"
     style="display:none;opacity:0.47000002"
     sodipodi:insensitive="true">
    <image
       transform="translate(0,3947.6378)"
       sodipodi:absref="C:\Users\wshuai\Pictures\737\IMG_20170814_134156.jpg"
       y="-4588.8633"
       x="336.02133"
       id="image4144"
       xlink:href="file:///C:/Users/wshuai/Pictures/737/IMG_20170814_134156.jpg"
       preserveAspectRatio="none"
       height="5760"
       width="4320" />
  </g>
  <g
     inkscape:groupmode="layer"
     id="layer4"
     inkscape:label="boundary"
     style="display:inline">
    <path
       style="fill:none;fill-rule:evenodd;stroke:#e5ffff;stroke-width:100;stroke-linecap:round;stroke-linejoin:round;stroke-miterlimit:4;stroke-dasharray:none;stroke-opacity:0.98039216;paint-order:stroke fill markers"
       d="m 800,3278.8889 c 108.33333,-116.2963 216.6676,-232.5936 293.3342,-329.0752 76.6665,-96.4816 121.6665,-173.1483 164.9997,-284.8149 43.3331,-111.6666 84.9998,-258.3333 126.6665,-386.6667 41.6668,-128.3334 83.3334,-238.3333 118.4306,-345.3044 35.0972,-106.9711 63.6249,-210.9122 92.1528,-314.8545 -28.5279,-21.0577 -57.0557,-42.1154 -92.1533,-73.4778 -35.0976,-31.3625 -76.7638,-73.0287 -86.7636,-129.696 -9.9999,-56.6672 11.6668,-128.334 31.6669,-176.667 20,-48.333 38.3337,-73.3335 48.2523,-123.3904 9.9186,-50.0568 11.4233,-125.1764 12.928,-200.2936 0,0 139.9549,173.2776 139.9549,173.2776 8.5103,-54.3087 17.0208,-108.61846 27.5729,-167.48776 10.5521,-58.8693 23.1461,-122.30071 35.7401,-185.73194 29.0727,53.43123 58.1451,106.8621 90.3573,147.40495 32.2121,40.54285 67.5628,68.19635 102.9138,95.85015 0,0 11.6581,-419.8906 11.6581,-419.8906 30.7629,85.64307 61.5257,171.28559 89.4073,226.6075 27.8817,55.3219 52.8815,80.3217 90.3818,101.15513 37.5003,20.83344 87.5003,37.5001 150.8334,44.16667 63.333,6.66656 140.0006,3.33319 198.3337,2.49989 58.3331,-0.8333 98.3336,0.83338 149.166,12.49987 50.8324,11.66649 112.5005,33.33367 169.5922,65.50204 57.0917,32.1684 111.2412,76.1649 162.4274,119.0818 51.1861,42.9169 102.1471,87.083 154.1645,187.3459 52.0174,100.2628 106.0525,257.4557 153.5526,378.2893 47.5001,120.8336 88.4646,205.3065 129.5934,311.85 41.1288,106.5435 112.0127,327.3239 127.1258,339.3665 15.1131,12.0427 127.3374,-62.8239 195.8577,-72.1295 68.5203,-9.3057 140.187,15.6943 196.0199,51.5275 55.833,35.8331 95.8328,82.4996 114.9996,145.8328 19.1668,63.3332 17.5002,143.3315 -8.3331,217.4993 -25.8334,74.1678 -75.8315,142.4986 -140.4625,176.111 -64.6309,33.6124 -143.8894,32.5013 -223.1487,31.3902 10.9259,51.1111 21.8517,102.2215 38.1481,175.2776 16.2965,73.0562 37.9627,168.0542 52.9629,266.3882 15.0001,98.3341 23.3333,199.999 19.1668,292.4997 -4.1666,92.5007 -20.8331,175.8332 -38.3332,252.5004 -17.5001,76.6671 -35.8328,146.6649 -80.8332,199.9995 -45.0004,53.3346 -116.6657,90.0006 -207.5001,122.501 -90.8344,32.5005 -200.8323,60.8333 -306.6663,80.8334 -105.8339,20.0002 -207.4994,31.6667 -330.0002,41.6668 -122.5008,10.0001 -265.8326,18.3333 -396.6664,20.8333 -130.8338,2.5001 -249.1663,-0.8332 -365.0247,-12.3593 -115.8583,-11.526 -232.4751,-31.8072 -344.1422,-58.4739 -111.6672,-26.6668 -219.9992,-59.9997 -315.8332,-107.5 -95.8341,-47.5002 -179.1669,-109.1665 -225.8338,-184.1672 -46.6668,-75.0006 -56.6668,-163.3338 -62.4983,-246.5827 -5.8315,-83.2489 -7.5018,-161.7512 5.6443,-244.8062 13.1461,-83.0551 53.1046,-208.5061 28.8463,-229.5403 -24.2583,-21.0342 -185.70057,-0.921 -298.659,13.1519 z"
       id="path1458"
       inkscape:connector-curvature="0"
       inkscape:path-effect="#path-effect1460"
       inkscape:original-d="m 800,3278.8889 c 0,0 216.6676,-232.5936 325,-348.8889 45.001,-76.6677 90.001,-153.3344 135,-230 41.6676,-146.6676 83.3343,-293.3343 125,-440 41.6677,-110.0011 83.3343,-220.001 125,-330 28.5289,-103.9432 85.5838,-311.8268 85.5838,-311.8268 0,0 -57.0549,-42.1165 -85.5838,-63.1732 -41.6661,-41.6681 -83.3323,-83.3343 -125,-125 21.6677,-71.6676 43.3343,-143.3344 65,-215 18.334,-25.0005 36.6677,-50.001 55,-75 1.5056,-75.1148 4.5141,-225.3516 4.5141,-225.3516 l 139.9549,173.2776 c 0,0 17.0217,-108.61833 25.531,-162.926 12.5947,-63.43091 37.782,-190.2937 37.782,-190.2937 0,0 58.1463,106.86147 87.218,160.2937 35.3523,27.65298 106.0531,82.9614 106.0531,82.9614 l 11.6581,-419.8906 c 0,0 61.5269,171.28515 92.2888,256.9292 25.0012,24.9992 50.001,49.999 75,75 50.001,16.66567 100.001,33.33233 150,50 76.6667,-3.33429 153.3343,-6.66767 230,-10 40.0005,1.66564 80.001,3.33233 120,5 61.6662,21.66515 123.3343,43.33233 185,65 53.3338,41.6653 106.6677,86.6657 160,130 49.0401,42.4995 100.001,86.6657 150,130 54.0361,157.192 108.0712,314.3849 162.1053,471.5789 40.9661,84.473 81.9306,168.9459 122.8947,253.4211 41.2935,128.612 112.1774,349.3924 123.8769,385.8367 18.5253,-12.3589 130.7497,-87.2254 196.1231,-130.8367 71.6677,24.999 143.3344,49.999 215,75 40.001,46.6656 80.0008,93.3321 120,140 -1.6657,79.9994 -3.3323,159.9977 -5,240 -49.9998,68.3334 -99.9979,136.6642 -150,205 -79.26,-1.1121 -237.7778,-3.3333 -237.7778,-3.3333 0,0 21.8529,102.2212 32.7778,153.3333 21.6679,95.0002 43.3342,189.9982 65,285 8.3344,101.6665 16.6676,203.3314 25,305 -16.6658,83.3331 -33.3323,166.6656 -50,250 -18.3326,69.9999 -36.6653,139.9977 -55,210 -71.667,36.6663 -143.3323,73.3323 -215,110 -110.0011,28.3329 -219.999,56.6657 -330,85 -101.6668,11.6658 -203.3323,23.3323 -305,35 -143.3339,8.3324 -286.6657,16.6657 -430,25 -118.3332,-3.3344 -236.6657,-6.6677 -355,-10 -113.3333,-20.0012 -229.999,-40.001 -345,-60 -108.3331,-33.3346 -216.6651,-66.6675 -325,-100 -83.3327,-61.668 -166.6656,-123.3342 -250,-185 -9.999,-88.3345 -19.999,-176.6677 -30,-265 -1.6621,-78.1654 -3.3323,-156.6677 -5,-235 27.9594,-87.7776 67.9179,-213.2286 83.8753,-263.3297 C 1074.4006,3244.702 800,3278.8889 800,3278.8889 Z"
       sodipodi:nodetypes="ccccccccccccccccccccccccccccccccccccccccccccccccccc"
       inkscape:export-xdpi="15.075647"
       inkscape:export-ydpi="15.075647" />
  </g>
  <g
     inkscape:groupmode="layer"
     id="layer3"
     inkscape:label="skin"
     sodipodi:insensitive="true"
     style="display:inline">
    <path
       style="fill:#ffe1a6;fill-opacity:1;fill-rule:evenodd;stroke:none;stroke-width:1px;stroke-linecap:butt;stroke-linejoin:miter;stroke-opacity:0.20657277"
       d="m 1640.5838,1618.1732 c -41.5981,151.837 -83.1959,303.6728 -128.5565,453.2761 -45.3606,149.6033 -94.483,296.9706 -152.3779,439.9536 -57.8949,142.983 -124.5611,281.5784 -200.9648,400.4288 -76.4037,118.8503 -162.54423,217.9539 -248.6846,317.0572 0,0 233.8753,-17.2186 233.8753,-17.2186 -28.6602,115.4081 -57.3201,230.8151 -70.7732,338.5198 -13.453,107.7047 -11.6986,207.7036 0.5821,285.7743 12.2807,78.0707 35.0875,134.2105 81.5792,186.8426 46.4918,52.6322 116.6666,101.7545 201.7544,145.6142 85.0877,43.8596 185.088,82.4562 299.1229,111.4035 114.0349,28.9473 242.1057,48.2456 395.614,58.7718 153.5083,10.5263 332.4568,12.2807 502.6318,5.2632 170.1751,-7.0176 331.5795,-22.8071 481.5791,-45.6141 149.9996,-22.807 288.597,-52.6318 387.7195,-93.86 99.1225,-41.2282 158.7721,-93.8602 198.2453,-145.6143 39.4733,-51.7541 58.7718,-102.6321 72.8066,-165.7891 14.0349,-63.157 22.807,-138.5973 24.5613,-238.5963 1.7544,-99.9991 -3.5089,-224.5623 -20.8578,-359.9417 -17.3488,-135.3795 -46.7836,-281.5787 -76.2183,-427.7775 61.0137,-8.1871 122.0284,-16.3744 174.4647,-38.0119 52.4362,-21.6375 96.2967,-56.7259 123.4891,-106.7252 27.1924,-49.9993 37.719,-114.9132 25.4384,-175.4386 -12.2806,-60.5254 -47.3689,-116.6667 -92.1053,-154.3857 -44.7363,-37.719 -99.1225,-57.0174 -144.7365,-61.4035 -45.6139,-4.3862 -82.4556,6.14 -117.6434,20.3147 -35.1877,14.1746 -68.72,31.9974 -102.2523,49.8202 -36.6432,-119.5771 -73.2865,-239.1549 -105.6287,-331.0847 -32.3421,-91.9298 -60.3835,-156.2131 -83.1904,-207.9673 -22.807,-51.7543 -40.3797,-90.98 -57.9525,-130.2058 -87.7193,-26.3158 -175.4379,-52.6313 -282.4559,-77.1929 -107.018,-24.5615 -233.3328,-47.3683 -338.5961,-52.6316 -105.2633,-5.2633 -189.4733,7.0173 -255.263,19.298 -65.7897,12.2808 -113.1575,24.5613 -191.2292,30.7018 -78.0716,6.1405 -190.3496,6.1405 -284.4632,-0.4797 -94.1137,-6.6203 -171.814,-19.8608 -249.5141,-33.1013 z"
       id="path5184"
       inkscape:connector-curvature="0"
       inkscape:path-effect="#path-effect5186"
       inkscape:original-d="m 1640.5838,1618.1732 c 0,0 -83.1952,303.673 -124.7943,455.511 -49.1222,147.3686 -98.2446,294.7359 -147.3684,442.1053 -66.6663,138.5966 -133.3324,277.192 -200,415.7894 C 1082.281,3030.6821 910,3228.8889 910,3228.8889 l 233.8753,-17.2186 c 0,0 -57.3194,230.8153 -85.9806,346.2244 1.7554,100.0001 3.5098,199.999 5.2632,300 22.8082,56.1399 45.615,112.2797 68.421,168.4211 70.1771,49.1222 140.3519,98.2446 210.5264,147.3684 100.0007,38.5954 200.001,77.192 300,115.7895 128.0705,19.2971 256.1413,38.5955 384.2105,57.8947 178.9472,1.7534 357.8957,3.5078 536.8421,5.2632 161.4036,-15.7904 322.808,-31.58 484.2105,-47.3684 138.5966,-29.8254 277.194,-59.6502 415.7895,-89.4737 59.6496,-52.6322 119.2992,-105.2642 178.9474,-157.8948 19.2989,-50.8773 38.5975,-101.7553 57.8947,-152.6315 8.7727,-75.4379 17.5449,-150.8782 26.3158,-226.3158 -5.2621,-124.5606 -10.5253,-249.1238 -15.7895,-373.6842 -29.4335,-146.1987 -88.3041,-438.5965 -88.3041,-438.5965 0,0 122.0283,-16.3753 183.041,-24.5614 43.8598,-35.0881 87.7203,-70.1765 131.5789,-105.2632 10.5271,-64.9117 21.0536,-129.8256 31.579,-194.7368 -35.0862,-56.1404 -70.1745,-112.2817 -105.2632,-168.4211 -54.3847,-19.2991 -108.7709,-38.5975 -163.1579,-57.8947 -36.8415,10.5254 -73.6832,21.0516 -110.5263,31.5789 -33.5324,17.8224 -100.5968,53.4683 -100.5968,53.4683 0,0 -73.2854,-239.1553 -109.9295,-358.7314 -28.0401,-64.2836 -56.0815,-128.5669 -84.1237,-192.8489 -17.5717,-39.2265 -52.7184,-117.6775 -52.7184,-117.6775 0,0 -175.4376,-52.6325 -263.1579,-78.9473 -126.3158,-22.8082 -252.6306,-45.6151 -378.9474,-68.4211 -84.2101,12.2798 -168.4201,24.5604 -252.6316,36.8421 -47.368,12.2799 -94.7358,24.5604 -142.1052,36.8421 -108.7737,-10e-4 -221.0517,-10e-4 -331.579,0 -77.6998,-13.2416 -233.1004,-39.7215 -233.1004,-39.7215 z"
       sodipodi:nodetypes="cccccccccccccccccccccccccccccccccccc" />
  </g>
  <g
     inkscape:label="edge"
     inkscape:groupmode="layer"
     id="layer1"
     transform="translate(0,3947.6378)"
     style="display:inline"
     sodipodi:insensitive="true">
    <path
       style="fill:none;fill-rule:evenodd;stroke:#f7cc98;stroke-width:80;stroke-linecap:butt;stroke-linejoin:miter;stroke-miterlimit:4;stroke-dasharray:none;stroke-opacity:1"
       d="m 1640.5838,-2329.4646 c 0,0 -106.7791,392.4124 -156.1394,529.049 -49.3603,136.6366 -90.6997,314.8269 -139.4444,424.4445 -48.7447,109.6176 -102.782,270.0807 -170.5556,348.3333 C 1106.6708,-949.3852 910,-718.7489 910,-718.7489 c 0,0 96.6185,-10.1351 217.879,-22.1136 111.8348,-11.0473 244.6296,-23.6626 341.9218,-31.3413 202.7845,-16.0045 656.8659,-40.9896 656.8659,-40.9896"
       id="path4149"
       inkscape:connector-curvature="0"
       sodipodi:nodetypes="czzzcssc" />
    <path
       style="fill:none;fill-rule:evenodd;stroke:none;stroke-width:10;stroke-linecap:butt;stroke-linejoin:miter;stroke-miterlimit:4;stroke-dasharray:none;stroke-opacity:0.13615023"
       d="m 1143.8753,-735.9675 c -31.2913,84.9976 -62.5831,169.99638 -76.3773,282.86666 -13.7943,112.87027 -10.0906,253.61017 8.4279,359.16625 18.5185,105.556084 51.8517,175.925979 157.4081,249.0747 105.5565,73.14871 283.3332,149.07419 443.5184,190.74076 160.1851,41.66656 302.7781,49.07398 459.2592,53.69363 156.4811,4.61966 330.5561,6.49144 539.8147,-8.32336 209.2586,-14.8148 455.5563,-46.29648 616.2636,-84.02333 160.7073,-37.72684 237.4409,-82.64405 295.2452,-139.82556 57.8044,-57.18152 95.8989,-124.300513 116.2689,-237.262037 20.37,-112.961523 22.2219,-270.371623 16.6664,-401.852703 -5.5556,-131.48108 -18.5186,-237.03727 -36.329,-335.13053 -17.8105,-98.09326 -39.5971,-185.2399 -61.8192,-274.12808"
       id="path5105"
       inkscape:connector-curvature="0"
       inkscape:path-effect="#path-effect5107"
       inkscape:original-d="m 1143.8753,-735.9675 c -31.2908,84.99779 -62.5825,169.9966 -93.8753,254.9964 3.7047,140.7405 7.4084,281.4804 11.1111,422.2222 33.3346,70.3698 66.6677,140.7397 100,211.1111 177.7799,75.9254 355.5566,151.8509 533.3333,227.7778 142.5932,7.4064 285.1862,14.8138 427.7778,22.2222 170.3703,1.8508 344.4455,3.7027 516.6667,5.5556 246.2959,-31.4823 492.5936,-62.964 738.8889,-94.4445 75.9266,-42.5934 151.8528,-88.8899 227.7778,-133.3333 38.8892,-70.3703 77.7787,-137.0381 116.6666,-205.5556 1.8528,-157.4057 3.7047,-314.8158 5.5556,-472.2222 -12.9619,-105.5559 -25.9249,-211.1121 -38.8889,-316.6667 -22.2211,-90.741 -44.4435,-177.7787 -66.6667,-266.6666"
       sodipodi:nodetypes="ccccccccccccc" />
    <path
       style="fill:none;fill-rule:evenodd;stroke:#f7cc98;stroke-width:80;stroke-linecap:butt;stroke-linejoin:miter;stroke-miterlimit:4;stroke-dasharray:none;stroke-opacity:1"
       d="m 3444.4444,-1175.4156 c 59.2597,31.4817 118.5189,62.9632 172.2228,79.6298 53.7039,16.6666 101.8523,18.5184 156.4814,-0.926 54.6291,-19.4445 115.7415,-60.186 150.926,-125.0002 35.1846,-64.8141 44.444,-153.7047 24.0574,-224.0583 -20.3867,-70.3535 -74.0579,-125.9416 -137.0204,-152.7935 -62.9624,-26.8518 -137.0365,-26.8518 -202.7776,-5.5556 -65.7411,21.2962 -123.1477,63.8882 -180.5562,106.4816"
       id="path5109"
       inkscape:connector-curvature="0"
       inkscape:path-effect="#path-effect5111"
       inkscape:original-d="m 3444.4444,-1175.4156 c 59.2603,31.4805 118.5195,62.962 177.7778,94.4445 48.1489,1.8508 96.2973,3.7027 144.4445,5.5555 61.1109,-40.7409 122.2232,-81.4825 183.3333,-122.2222 9.2601,-88.8882 18.5195,-177.7788 27.7778,-266.6667 -49.9984,-51.8522 -103.7027,-107.4084 -155.5556,-161.1111 -74.073,0 -148.1471,0 -222.2222,0 -57.4072,42.5922 -114.8138,85.1842 -172.2222,127.7778" />
    <path
       style="fill:#454545;fill-opacity:1;fill-rule:evenodd;stroke:none;stroke-width:10;stroke-linecap:butt;stroke-linejoin:miter;stroke-miterlimit:4;stroke-dasharray:none;stroke-opacity:1"
       d="m 3122.9846,-2246.4008 c -72.654,-20.9295 -190.5945,-52.3803 -293.9046,-73.9669 -103.3101,-21.5866 -195.4824,-33.9512 -278.8245,-30.1993 -83.3421,3.7518 -161.0234,24.0165 -223.226,39.5672 -62.2025,15.5506 -109.9642,26.658 -179.3876,29.435 -69.4233,2.777 -160.5029,-2.7767 -232.1467,-8.3305 -71.6439,-5.5537 -123.8488,-11.1074 -166.4279,-17.7023 -42.5791,-6.5949 -75.5303,-14.2307 -113.2964,-23.6723 -37.7661,-9.4415 -80.3447,-20.6881 -114.964,-42.418 -34.6193,-21.7298 -61.2768,-53.9409 -80.715,-101.1482 -19.4382,-47.2073 -31.6566,-109.4097 -21.7256,-162.0061 9.931,-52.5963 42.0112,-95.5877 61.4492,-125.5781 19.438,-29.9903 26.2347,-46.9802 26.3008,-70.4686 0.066,-23.4884 -6.5991,-53.4817 -7.1544,-87.9148 -0.5553,-34.4331 4.9984,-73.3093 10.5522,-112.1857 4.443,12.2183 8.8858,24.436 26.972,48.5983 18.0863,24.1623 50.7806,61.3662 71.885,84.1368 21.1044,22.7705 31.1011,31.6565 41.0979,40.5425 0,0 63.313,-353.2197 63.313,-353.2197 18.8828,47.7624 37.7654,95.5243 69.616,135.8026 31.8506,40.2784 78.1142,74.1299 123.6551,107.4525 2.2215,-56.6484 4.443,-113.2979 8.886,-169.9459 4.443,-56.6479 11.1076,-113.2963 17.7721,-169.9447 21.1043,63.3129 42.2084,126.6253 72.7545,172.1667 30.5462,45.5414 70.5329,73.3099 126.6438,93.7611 56.1109,20.4511 130.4963,33.9758 197.6967,35.0864 67.2004,1.1107 128.2926,-9.997 192.16,-7.7754 63.8675,2.2215 130.514,17.7723 193.271,46.6517 62.757,28.8793 121.6276,71.0884 176.0544,117.1846 54.4267,46.0961 104.4108,96.0801 144.7426,154.4911 40.3319,58.411 71.8541,127.0845 106.9279,211.165 35.0737,84.0805 73.7802,183.6115 112.6566,283.5793 -29.9904,-11.1075 -59.9802,-22.2149 -132.6341,-43.1443 z"
       id="path5113"
       inkscape:connector-curvature="0"
       inkscape:path-effect="#path-effect5115"
       inkscape:original-d="m 3165.6476,-2236.5791 c -115.5195,-29.9919 -233.2572,-62.2032 -349.8873,-93.3033 -89.9706,-12.2194 -182.1626,-24.4376 -273.2454,-36.6549 -75.5309,19.9928 -153.283,39.9862 -229.926,59.9807 -47.7621,11.1067 -95.5238,22.2141 -143.2872,33.3226 -91.083,-5.5549 -182.1626,-11.1085 -273.2454,-16.6613 -52.2049,-5.5548 -104.4098,-11.1085 -156.6162,-16.6613 -32.9516,-7.6371 -65.9028,-15.2729 -98.8563,-22.908 -42.5787,-11.2479 -85.1573,-22.4946 -127.7374,-33.7404 -26.6577,-32.2136 -53.3152,-64.4247 -79.9743,-96.6356 -12.2173,-62.203 -24.4356,-124.4054 -36.6549,-186.6066 32.0803,-42.9912 64.1604,-85.9826 96.2391,-128.9723 6.7977,-16.9909 13.5944,-33.9808 20.3901,-50.9697 -6.6629,-29.9883 -13.3281,-59.9817 -19.9936,-89.9711 5.5546,-38.8764 16.6613,-116.6291 16.6613,-116.6291 0,0 8.887,24.4356 13.329,36.6549 31.1036,36.6555 64.4247,73.3087 96.6356,109.9646 9.9978,8.885 29.9903,26.6581 29.9903,26.6581 l 63.313,-353.2197 c 0,0 37.7666,95.5238 56.6484,143.2872 44.4317,33.322 136.6227,99.9679 136.6227,99.9679 0,0 4.444,-113.2979 6.6645,-169.9453 6.6654,-56.6484 19.9936,-169.9453 19.9936,-169.9453 0,0 42.2096,126.6249 63.3129,189.9388 39.9886,27.7681 79.9753,55.5367 119.9614,83.3065 72.1996,13.328 146.6205,26.6571 219.9292,39.9872 61.0918,-11.1084 122.1839,-22.2161 183.2744,-33.3226 66.6449,15.5492 133.2914,31.1001 199.9356,46.6516 58.8703,42.2072 117.7409,84.4163 176.6098,126.6259 49.9848,49.9828 99.9689,99.9668 149.9518,149.9517 31.1021,66.6443 62.2032,135.511 93.3033,203.268 39.0474,100.4041 116.6291,299.9034 116.6291,299.9034 0,0 -59.9797,-22.2161 -89.9711,-33.3226 z"
       sodipodi:nodetypes="ccccccccccccccccccccccccccccccccc" />
    <path
       style="fill:#454545;fill-opacity:1;fill-rule:evenodd;stroke:none;stroke-width:10;stroke-linecap:butt;stroke-linejoin:miter;stroke-miterlimit:4;stroke-dasharray:none;stroke-opacity:1"
       d="m 2101.1961,-532.06367 c 53.9394,-16.9697 107.88,-33.93978 170.0004,-50.00015 62.1204,-16.06037 132.4251,-31.21221 197.879,-40.90905 65.454,-9.69683 126.0611,-13.93934 179.3939,-12.72718 53.3328,1.21215 99.3942,7.87894 135.7573,23.03022 36.363,15.15129 63.0301,38.78806 89.2494,68.28694 26.2192,29.49888 52.5685,65.65255 78.6291,101.41012 -32.7273,-14.54543 -65.4541,-29.09065 -97.5752,-34.54533 -32.1211,-5.45468 -63.6358,-1.81837 -100.0001,13.03026 -36.3643,14.84862 -77.575,40.90833 -120.909,67.27237 -43.334,26.36404 -88.7872,53.02992 -128.4846,73.0302 -39.6974,20.00028 -73.636,33.3333 -111.2125,41.21233 -37.5765,7.87902 -78.7872,10.30317 -120.3034,-3.93957 -41.5161,-14.24274 -83.3332,-45.15104 -112.3704,-78.06572 -29.0371,-32.91469 -45.5087,-68.29795 -53.3873,-96.47996 -7.8787,-28.18201 -7.2727,-49.39335 -6.6666,-70.60548 z"
       id="path5117"
       inkscape:connector-curvature="0"
       inkscape:path-effect="#path-effect5119"
       inkscape:original-d="m 2101.1961,-532.06367 c 0,0 107.8798,-33.9404 161.8182,-50.9091 70.3025,-15.1521 140.6071,-30.304 210.9091,-45.4545 60.606,-4.2434 121.2131,-8.4858 181.8182,-12.7273 46.0608,6.6656 92.1222,13.3324 138.1818,20 26.6672,23.635 53.3343,47.2718 80,70.9091 26.0615,35.1504 78.1818,107.2727 78.1818,107.2727 0,0 -65.4535,-29.0919 -98.1818,-43.6363 -31.5146,3.6354 -63.0293,7.2717 -94.5455,10.9091 -41.2125,26.0605 -82.4232,52.1202 -123.6363,78.1818 -45.4549,26.6664 -90.9081,53.3323 -136.3637,80 -33.9392,13.3327 -67.8778,26.6657 -101.8182,40 -41.2125,2.4233 -82.4232,4.8475 -123.6363,7.2727 -41.8183,-30.9109 -83.6354,-61.8192 -125.4546,-92.7273 -15.7566,-35.1526 -32.7262,-70.304 -49.0909,-105.4545 0.6071,-21.2129 1.8182,-63.6364 1.8182,-63.6364 z"
       sodipodi:nodetypes="cccccccccccccccc" />
    <path
       style="fill:#424242;fill-opacity:1;fill-rule:evenodd;stroke:none;stroke-width:10;stroke-linecap:butt;stroke-linejoin:miter;stroke-miterlimit:4;stroke-dasharray:none;stroke-opacity:1"
       d="m 2101.1961,-532.06367 c -48.4848,-10.30303 -96.9689,-20.60591 -149.3936,-33.03024 -52.4247,-12.42433 -108.7875,-26.96956 -160.9106,-36.03793 -52.1231,-9.06837 -101.21,-12.74989 -152.1195,-7.90147 -50.9094,4.84842 -104.2418,18.18152 -157.5757,42.12106 -53.3339,23.93954 -106.6673,58.48501 -160.0006,93.03048 30.9091,0 61.8192,0 97.576,2.72723 35.7568,2.72723 76.3642,8.18195 111.5151,22.12109 35.1509,13.93915 64.8485,36.36386 95.8648,59.55219 31.0164,23.18832 64.1352,47.72078 105.3474,68.32684 41.2122,20.60606 90.9094,37.57584 134.8489,42.12112 43.9395,4.54528 82.1217,-3.3336 114.2424,-23.33353 32.1207,-19.99994 58.1821,-52.12213 77.2725,-92.42438 19.0904,-40.30224 31.2117,-88.78759 43.3329,-137.27246 z"
       id="path5121"
       inkscape:connector-curvature="0"
       inkscape:path-effect="#path-effect5123"
       inkscape:original-d="m 2101.1961,-532.06367 c 0,0 -96.9687,-20.607 -145.4545,-30.9091 -56.3635,-14.5466 -112.7263,-29.0919 -169.0909,-43.6363 -47.8784,-3.6374 -96.9687,-7.2737 -145.4546,-10.9091 -53.3333,13.3326 -106.6657,26.6657 -160,40 -53.3335,34.5452 -160,103.6364 -160,103.6364 0,0 61.8192,0 92.7273,0 40.6057,5.4533 81.2131,10.908 121.8182,16.3636 29.6973,22.4228 59.3949,44.8475 89.0909,67.2727 32.122,24.2413 65.4555,48.4839 98.1818,72.7273 49.6977,16.9686 99.3949,33.9384 149.0909,50.9091 38.1824,-7.8797 76.3646,-15.7586 114.5455,-23.6364 26.0608,-32.1212 52.1222,-64.2434 78.1818,-96.3636 12.1218,-48.4842 36.3636,-145.4546 36.3636,-145.4546 z"
       sodipodi:nodetypes="cccccccccccccc" />
    <ellipse
       style="fill:#454545;fill-opacity:1;fill-rule:nonzero;stroke:none;stroke-width:10;stroke-miterlimit:4;stroke-dasharray:none;stroke-opacity:1"
       id="path5125"
       cx="1726.3889"
       cy="-1474.8601"
       rx="112.5"
       ry="177.77777" />
    <ellipse
       style="fill:#454545;fill-opacity:1;fill-rule:nonzero;stroke:none;stroke-width:10;stroke-miterlimit:4;stroke-dasharray:none;stroke-opacity:1"
       id="path5127"
       cx="2401.3887"
       cy="-1494.3046"
       rx="120.83334"
       ry="191.66667" />
    <path
       style="fill:none;fill-rule:evenodd;stroke:#f7cc98;stroke-width:80;stroke-linecap:butt;stroke-linejoin:miter;stroke-miterlimit:4;stroke-dasharray:none;stroke-opacity:1"
       d="m 2732.3099,-316.13193 c -93.5185,62.49999 -187.0359,124.99923 -298.6107,169.2126 -111.5748,44.21336 -241.203,70.138992 -355.4797,74.781486 -114.2767,4.642493 -213.5014,-12.049508 -283.4093,-35.660766 -69.9079,-23.61126 -110.6485,-54.16668 -151.3892,-84.72225"
       id="path5129"
       inkscape:connector-curvature="0"
       inkscape:path-effect="#path-effect5131"
       inkscape:original-d="m 2732.3099,-316.13193 c 0,0 -187.0361,124.99899 -280.5556,187.49997 -129.6301,25.9252 -259.2582,51.850897 -388.8889,77.777797 -99.0739,-15.7419 -198.1471,-33.3343 -297.2222,-49.999997 -40.7401,-30.5568 -122.2222,-91.6667 -122.2222,-91.6667"
       sodipodi:nodetypes="ccccc" />
    <ellipse
       style="fill:#fafafa;fill-opacity:1;fill-rule:nonzero;stroke:none;stroke-width:10;stroke-miterlimit:4;stroke-dasharray:none;stroke-opacity:1"
       id="path5133"
       cx="1716.049"
       cy="-1552.8124"
       rx="27.442146"
       ry="36.589531" />
    <ellipse
       style="fill:#ffffff;fill-opacity:1;fill-rule:nonzero;stroke:none;stroke-width:10;stroke-miterlimit:4;stroke-dasharray:none;stroke-opacity:1"
       id="path5135"
       cx="2383.8079"
       cy="-1588.4872"
       rx="27.442146"
       ry="39.333744" />
  </g>
  <g
     inkscape:groupmode="layer"
     id="layer5"
     inkscape:label="logo"
     sodipodi:insensitive="true">
    <text
       xml:space="preserve"
       style="font-style:normal;font-weight:normal;font-size:180px;line-height:125%;font-family:sans-serif;letter-spacing:0px;word-spacing:0px;fill:#4f3e3e;fill-opacity:1;stroke:none;stroke-width:1px;stroke-linecap:butt;stroke-linejoin:miter;stroke-opacity:1"
       x="1765"
       y="1305"
       id="text1465"><tspan
         sodipodi:role="line"
         id="tspan1463"
         x="1765"
         y="1305">cpuwolf</tspan></text>
  </g>
</svg>
